<?xml version="1.0" encoding="UTF-8" standalone="no"?>
<!-- Created with Inkscape (http://www.inkscape.org/) -->

<svg
   width="297mm"
   height="210mm"
   viewBox="0 0 297 210"
   version="1.1"
   id="svg1"
   inkscape:version="1.4.2 (ebf0e940d0, 2025-05-08)"
   sodipodi:docname="drawing-2.svg"
   xmlns:inkscape="http://www.inkscape.org/namespaces/inkscape"
   xmlns:sodipodi="http://sodipodi.sourceforge.net/DTD/sodipodi-0.dtd"
   xmlns="http://www.w3.org/2000/svg"
   xmlns:svg="http://www.w3.org/2000/svg">
  <sodipodi:namedview
     id="namedview1"
     pagecolor="#ffffff"
     bordercolor="#000000"
     borderopacity="0.25"
     inkscape:showpageshadow="2"
     inkscape:pageopacity="0.0"
     inkscape:pagecheckerboard="0"
     inkscape:deskcolor="#d1d1d1"
     inkscape:document-units="mm"
     inkscape:zoom="6.1295494"
     inkscape:cx="639.93285"
     inkscape:cy="367.97158"
     inkscape:window-width="1920"
     inkscape:window-height="1100"
     inkscape:window-x="0"
     inkscape:window-y="0"
     inkscape:window-maximized="1"
     inkscape:current-layer="layer1" />
  <defs
     id="defs1" />
  <g
     inkscape:label="Layer 1"
     inkscape:groupmode="layer"
     id="layer1">
    <path
       style="fill:none;stroke:#000000;stroke-width:2;stroke-dashoffset:7.58933"
       d="m 186.81274,111.08069 3.7992,40.99968 -60.69575,22.50516 -8.52469,-18.7543 52.17107,-18.41332 -8.86567,-65.469575 -49.78416,-31.711825 -64.105622,3.409873 2.727899,130.598167 -16.708381,1.36395 0.340988,-66.83353 1.363948,-77.063144 78.427098,-6.137773 65.46957,38.190585 2.27695,24.572116"
       id="path1"
       sodipodi:nodetypes="ccccccccccccccc" />
    <path
       style="fill:none;stroke:#000000;stroke-width:2;stroke-dashoffset:7.58933"
       d="m 184.22384,87.672226 28.55228,-10.609082 -4.43284,-18.072329 m 0,0 -60.69575,-39.554535 m 0,0 h 21.14122 m 0,0 56.6039,35.803674 4.09185,22.505167 -3.06889,22.505169 m 0,0 22.84616,0.34098 2.38691,-23.528124 -6.47876,-21.823192 m 0,0 -52.17107,-37.508611 21.48221,-1.022962 46.03329,27.960965 12.61653,30.688863 m 0,0 0.34099,29.324911 -12.61653,20.11826 -36.48565,-2.38691 -15.00344,-16.70839 m 0,0 2.04592,29.32492 10.9116,-6.81975 m 0,0 39.21354,3.75086 11.93456,14.32147 m 0,0 -9.20666,42.28244 -114.23077,0.34098 42.62342,-16.70838 55.58095,0.68198 m 0,0 5.45579,-21.14122 m 0,0 -7.84271,-7.16073 -15.00344,-1.70494 m 0,0 -16.02641,11.25258 -17.39035,-2.38691 m 0,0 -4.51917,-40.46083 -6.66876,0.68631"
       id="path2"
       sodipodi:nodetypes="ccccccccccccccccccccccccccccccccccccccccccccccc" />
  </g>
</svg>
