<?xml version="1.0" encoding="UTF-8" standalone="no"?>
<!-- Created with Inkscape (http://www.inkscape.org/) -->

<svg
   xml:space="preserve"
   id="svg5"
   version="1.1"
   viewBox="0 0 297 210"
   height="210mm"
   width="297mm"
   inkscape:version="1.2.2 (b0a8486541, 2022-12-01)"
   sodipodi:docname="track.svg"
   xmlns:inkscape="http://www.inkscape.org/namespaces/inkscape"
   xmlns:sodipodi="http://sodipodi.sourceforge.net/DTD/sodipodi-0.dtd"
   xmlns="http://www.w3.org/2000/svg"
   xmlns:svg="http://www.w3.org/2000/svg"><sodipodi:namedview
     id="namedview7"
     pagecolor="#ffffff"
     bordercolor="#666666"
     borderopacity="1.0"
     inkscape:showpageshadow="2"
     inkscape:pageopacity="0.0"
     inkscape:pagecheckerboard="0"
     inkscape:deskcolor="#d1d1d1"
     inkscape:document-units="mm"
     showgrid="false"
     inkscape:zoom="0.914906"
     inkscape:cx="550.87626"
     inkscape:cy="441.02891"
     inkscape:window-width="2514"
     inkscape:window-height="1371"
     inkscape:window-x="0"
     inkscape:window-y="0"
     inkscape:window-maximized="1"
     inkscape:current-layer="g234" /><defs
     id="defs2" /><g
     inkscape:label="Layer 1"
     inkscape:groupmode="layer"
     id="layer1"><g
       transform="matrix(0.03983168,0,0,-0.0398804,-27.164787,220.41795)"
       fill="#000000"
       stroke="none"
       id="g234"><path
         d="m 1354,5411 c -291,-79 -501,-290 -575,-579 -18,-71 -19,-119 -19,-871 0,-871 -1,-850 59,-969 54,-108 131,-184 241,-242 130,-67 155,-70 665,-70 279,0 464,-4 487,-10 53,-15 118,-68 153,-125 26,-42 30,-58 30,-119 -1,-46 -6,-82 -17,-101 -25,-48 -88,-106 -137,-129 -44,-20 -65,-21 -501,-26 -380,-5 -462,-9 -500,-22 -229,-81 -372,-218 -447,-430 -35,-97 -44,-297 -18,-398 60,-235 238,-420 469,-487 l 78,-23 h 1142 c 1264,0 1178,-4 1317,66 121,60 243.5774,262.5911 288.5774,369.0911 L 4080,1960 c 5,666 7,718 24,765 78,207 289,341 485,306 95,-17 162,-51 233,-118 63,-60 95,-108 125,-183 16,-41 18,-106 23,-755 l 5,-710 27,-75 c 68,-185 211,-317 395,-365 83,-22 1853,-22 1955,-1 308,66 552,268 671,557 69,166 68,144 65,1129 l -3,885 -23,50 c -19,41 -190,218 -960,989 -829,829 -944,941 -997,967 l -60,29 H 4674 c -1523,0 -1407,5 -1549,-68 -91,-47 -180,-136 -228,-228 -61,-118 -67,-160 -67,-502 0,-198 -4,-319 -12,-350 -8,-34 -26,-61 -67,-103 -47,-48 -64,-59 -111,-69 -97,-21 -192,23 -247,117 -38.6833,88.6993 -31.6936,204.9775 -34,303 -6,216 -10,265 -27,320 -34.891,109.3157 -69.4439,155.8361 -99,223 -20,44 -111,144 -175,192 -73,55 -166,104 -258,135 -94,33 -343,39 -446,11 z m 426,-61 c 90,-31 165,-70 238,-125 65,-49 150,-143 177,-196 31.5578,-54.4633 28.9499,-42.8855 54,-103 46,-107 53,-152 60,-416 6,-235 8,-258 28,-296 70,-132 200,-189 339,-149 48,14 69,27 116,75 85,87 88,101 88,469 0,340 6,389 63,494 64,120 168,207 306,254 l 66,22 1355,1 h 1355 l 50,-24 c 40,-19 234,-208 992,-967 916,-919 942,-945 957,-998 14,-48 16,-159 16,-903 0,-935 1,-924 -62,-1078 -114,-276 -351,-473 -646,-536 -102,-21 -1832,-21 -1915,1 -169,44 -304,169 -366,338 l -26,72 -5,710 c -5,698 -5,711 -27,762 -35,86 -67,135 -130,194 -260,248 -676,146 -806,-199 -21,-56 -22,-69 -27,-772 l -18.2126,-734.3132 C 3974.2874,1152.6868 3859,975 3750,920 c -125,-63 -54,-60 -1285,-60 -1101,0 -1122,0 -1195,21 -96,26 -184,76 -259,145 -60,55 -134,156 -134,181 0,7 -4,13 -7,13 -4,0 -18,33 -31,73 -35,105 -35,290 0,395 53,163 167,292 329,372 109,53 107,53 592,59 l 455,6 56,26 c 110,52 170,139 177,260 4,66 1,84 -20,131 -33,71 -75,118 -140,154 l -53,29 -500,6 c -542,6 -529,5 -647,66 -135,71 -238,204 -268,348 -7,34 -10,313 -8,845 l 3,795 31,88 c 41,112 83,182 164,269 104,112 214,178 365,219 99,27 311,21 405,-11 z"
         id="path228"
         sodipodi:nodetypes="ccsccscccccccccccscccccccccccccccccccsccsccccccccccccccccccsccccccccsccccccccccccsccssccccccccccccccccccc" /><path
         d="m 1455,4882 c -57,-27 -101,-67 -133,-121 l -27,-46 -3,-735 -3,-735 22,-17 c 19,-17 58,-18 478,-18 489,0 527,-3 651,-53 33,-14 86,-40 117,-58 57,-34 213,-174 213,-191 0,-5 9,-19 21,-31 35,-37 98,-177 120,-267 31,-121 24,-310 -15,-425 -86,-253 -279,-439 -536,-516 -71,-21 -98,-23 -526,-28 -483,-6 -458,-4 -513,-59 -17,-17 -24,-38 -28,-80 -5,-67 16,-109 69,-142 32,-20 53,-20 1100,-20 842,0 1069,3 1075,13 4,6 10,323 14,702 5,673 6,692 27,775 25,93 92,242 143,317 47,69 164,188 235,239 143,102 332,169 514,181 416,26 820,-232 965,-617 62,-166 59,-123 62,-881 4,-657 5,-698 22,-713 16,-15 94,-16 882,-14 l 864,3 66,32 c 80,40 159,120 197,200 24,52 27,70 27,163 0,183 149,18 -1519,1688 L 4565,4900 h -592 c -575,0 -593,-1 -603,-19 -6,-12 -10,-130 -10,-314 0,-213 -4,-316 -14,-369 -103,-533 -692,-795 -1156,-513 -154,94 -270,245 -330,430 -21,62 -24,97 -29,325 -6,230 -8,260 -27,301 -25,53 -80,110 -132,135 -54,27 -166,30 -217,6 z m 180,-51 c 22,-10 56,-33 74,-52 61,-61 65,-78 72,-359 5,-227 8,-263 29,-325 115,-356 414,-575 785,-575 400,0 726,268 801,658 10,53 14,157 14,373 v 299 h 563 562 L 6001,3383 C 7640,1742 7505,1890 7505,1735 c 0,-60 -6,-92 -22,-128 -30,-66 -115,-151 -182,-184 l -56,-28 h -845 -845 l -6,695 c -6,756 -3,715 -65,880 -53,142 -168,310 -274,399 -123,103 -291,189 -448,228 -108,27 -371,24 -487,-5 -105,-27 -272,-103 -359,-166 -71,-51 -188,-170 -235,-239 -52,-77 -128,-244 -153,-337 -22,-83 -22,-97 -25,-773 l -4,-687 H 2454 1408 l -34,34 c -37,37 -42,62 -19,106 30,58 31,58 511,62 499,5 504,6 674,94 197,101 331,260 406,479 24,69 28,100 32,231 4,130 1,162 -17,235 -74,291 -273,502 -566,600 -69,23 -80,24 -560,29 l -490,5 -3,694 c -1,436 2,707 8,730 13,49 70,114 122,140 52,26 110,27 163,2 z"
         id="path230" /><path
         d="m 6400,3755 c 630,-630 1148,-1145 1152,-1145 5,0 8,136 8,303 v 302 l -843,843 -842,842 h -310 -310 z m 278,262 832,-832 -2,-228 -3,-227 -1060,1060 -1060,1060 h 230 230 z"
         id="path232" /></g></g></svg>
