<?xml version="1.0" encoding="UTF-8" standalone="no"?>
<!-- Created with Inkscape (http://www.inkscape.org/) -->

<svg
   xml:space="preserve"
   id="svg5"
   version="1.1"
   viewBox="0 0 297 210"
   height="210mm"
   width="297mm"
   inkscape:version="1.4.2 (ebf0e940d0, 2025-05-08)"
   sodipodi:docname="track.svg"
   xmlns:inkscape="http://www.inkscape.org/namespaces/inkscape"
   xmlns:sodipodi="http://sodipodi.sourceforge.net/DTD/sodipodi-0.dtd"
   xmlns="http://www.w3.org/2000/svg"
   xmlns:svg="http://www.w3.org/2000/svg"><sodipodi:namedview
     id="namedview7"
     pagecolor="#ffffff"
     bordercolor="#666666"
     borderopacity="1.0"
     inkscape:showpageshadow="2"
     inkscape:pageopacity="0.0"
     inkscape:pagecheckerboard="0"
     inkscape:deskcolor="#d1d1d1"
     inkscape:document-units="mm"
     showgrid="false"
     inkscape:zoom="0.914906"
     inkscape:cx="551.42277"
     inkscape:cy="441.02891"
     inkscape:window-width="1920"
     inkscape:window-height="1100"
     inkscape:window-x="0"
     inkscape:window-y="0"
     inkscape:window-maximized="1"
     inkscape:current-layer="svg5" /><defs
     id="defs2" /><g
     inkscape:label="Layer 1"
     inkscape:groupmode="layer"
     id="layer1"><g
       transform="matrix(0.03983168,0,0,-0.0398804,-27.164787,220.41795)"
       fill="#000000"
       stroke="none"
       id="g234"><path
         d="M 1354 5411 L 1151.8 5327.84 L 985.125 5200.25 L 859.141 5033.28 L 779 4832 L 762.75 4651.88 L 760 3961 L 767 3194.5 L 784.469 3071.12 L 819 2992 L 918.5 2852.25 L 1060 2750 L 1147.03 2710.8 L 1250 2689.88 L 1725 2680 L 2212 2670 L 2295.25 2623.25 L 2365 2545 L 2389.75 2492.62 L 2395 2426 L 2378 2325 L 2318.5 2251.12 L 2241 2196 L 2137.5 2177.38 L 1740 2170 L 1361.75 2162 L 1240 2148 L 1084.09 2076.45 L 958.75 1982.12 L 862.281 1863.23 L 793 1718 L 761.125 1520.5 L 775 1320 L 841.109 1154.19 L 945.375 1013.5 L 1081.7 904.312 L 1244 833 L 1322 810 L 2464 810 L 3544.38 816.75 L 3694.33 836.156 L 3781 876 L 3870.81 944.006 L 3953.79 1043.11 L 4069.58 1245.09 L 4080 1960 L 4087.5 2574.62 L 4104 2725 L 4185.12 2865.06 L 4302.25 2968.75 L 4441.5 3027.06 L 4515.09 3036.39 L 4589 3031 L 4714.5 2990.75 L 4822 2913 L 4896.88 2827.12 L 4947 2730 L 4962.62 2580.5 L 4970 1975 L 4975 1265 L 5002 1190 L 5066.53 1061.67 L 5156 956.125 L 5267.22 876.266 L 5397 825 L 5723.14 812.609 L 6367.38 808.375 L 7352 824 L 7570.05 898.234 L 7758.38 1018.88 L 7911.27 1181.33 L 8023 1381 L 8062.69 1488.92 L 8082.5 1638.38 L 8088 2510 L 8085 3395 L 8062 3445 L 7863.62 3665.75 L 7102 4434 L 6312.5 5218.62 L 6105 5401 L 6045 5430 L 4674 5430 L 3381.62 5423.38 L 3212.77 5403.42 L 3125 5362 L 2994.88 5264.88 L 2897 5134 L 2860.8 5053.88 L 2840.62 4967 L 2830 4632 L 2818 4282 L 2796.88 4233.5 L 2751 4179 L 2695.5 4130.25 L 2640 4110 L 2568.22 4106.2 L 2500.75 4125.38 L 2441.16 4166.11 L 2393 4227 L 2362.36 4375 L 2359 4530 L 2349.62 4750.38 L 2332 4850 L 2280.5 4977.31 L 2233 5073 L 2162 5167.5 L 2058 5265 L 1936.12 5341.5 L 1800 5400 L 1705.14 5419.58 L 1580.38 5428.38 L 1453.92 5425.73 L 1354 5411 L 1354 5411 M 1780 5350 L 1905.38 5296.5 L 2018 5225 L 2120.75 5128.5 L 2195 5029 L 2249 4926 L 2293.62 4776.88 L 2309 4510 L 2317.75 4288.12 L 2337 4214 L 2399.95 4129.41 L 2480.62 4075 L 2574.23 4052.84 L 2676 4065 L 2734.38 4089.75 L 2792 4140 L 2841.61 4198.23 L 2867.88 4269.12 L 2880 4609 L 2890.12 4944.12 L 2909.11 5029.33 L 2943 5103 L 2998.41 5186.7 L 3068.25 5257.38 L 3151.97 5314.36 L 3249 5357 L 3315 5379 L 4670 5380 L 6025 5380 L 6075 5356 L 6301.75 5150 L 7067 4389 L 7883.38 3565.25 L 7996.95 3440.06 L 8024 3391 L 8037.25 3200.5 L 8040 2488 L 8032.62 1656.12 L 8014.27 1511.92 L 7978 1410 L 7870.45 1218.67 L 7722.88 1062.12 L 7541.36 945.516 L 7332 874 L 6367.38 858.375 L 5736.89 862.609 L 5417 875 L 5297.23 922.609 L 5193.88 997.125 L 5110.58 1095.08 L 5051 1213 L 5025 1285 L 5020 1995 L 5012.88 2618.62 L 5005.8 2714.58 L 4993 2757 L 4938.5 2864.12 L 4863 2951 L 4759.05 3027.8 L 4645.66 3073.05 L 4528 3087.99 L 4411.25 3073.88 L 4300.6 3031.97 L 4201.22 2963.52 L 4118.29 2869.78 L 4057 2752 L 4037.5 2608.62 L 4030 1980 L 4011.79 1245.69 L 3907.71 1068.59 L 3831.62 981.014 L 3750 920 L 3669.59 884.047 L 3522.25 866.375 L 2465 860 L 1482 862.625 L 1332.69 868.859 L 1270 881 L 1132.62 937.375 L 1011 1026 L 921.5 1127.75 L 877 1207 L 870 1220 L 839 1293 L 819.312 1384.25 L 812.75 1490.5 L 819.312 1596.75 L 839 1688 L 889.984 1803.64 L 962.625 1905.12 L 1055.7 1991.05 L 1168 2060 L 1238.28 2090.73 L 1323 2107.12 L 1760 2119 L 2215 2125 L 2271 2151 L 2344.08 2196.55 L 2398.12 2255.12 L 2432.86 2326.64 L 2448 2411 L 2447.38 2483.62 L 2428 2542 L 2370 2632.12 L 2288 2696 L 2235 2725 L 1735 2731 L 1252.5 2743.38 L 1162.66 2761.8 L 1088 2797 L 993.391 2861.08 L 914.625 2943.62 L 855.547 3039.86 L 820 3145 L 812 3990 L 815 4785 L 846 4873 L 913 5016.88 L 1010 5142 L 1089.67 5217.7 L 1174.88 5278.12 L 1268.89 5325.23 L 1375 5361 L 1579.38 5377.62 L 1780 5350 L 1780 5350"
         id="path228"
         sodipodi:nodetypes="ccsccscccccccccccscccccccccccccccccccsccsccccccccccccccccccsccccccccsccccccccccccsccssccccccccccccccccccc" /><path
         d="M 1455 4882 L 1379.12 4831.62 L 1322 4761 L 1295 4715 L 1292 3980 L 1289 3245 L 1311 3228 L 1399.62 3212.62 L 1789 3210 L 2251.38 3202.25 L 2354.73 3186.38 L 2440 3157 L 2557 3099 L 2684.88 2997.12 L 2770 2908 L 2791 2877 L 2855.88 2763.38 L 2911 2610 L 2927.22 2508.72 L 2929.75 2395.25 L 2919.16 2282.91 L 2896 2185 L 2812.11 2008.47 L 2692.12 1861 L 2540.08 1746.53 L 2360 1669 L 2230.88 1649 L 1834 1641 L 1417 1629.88 L 1356.44 1613.58 L 1321 1582 L 1302.12 1551.38 L 1293 1502 L 1305.75 1418.25 L 1362 1360 L 1400.14 1348.44 L 1531.38 1342.5 L 2462 1340 L 3313 1342.75 L 3537 1353 L 3551 2055 L 3558.5 2663.75 L 3578 2830 L 3639.75 2995.25 L 3721 3147 L 3829.5 3273.25 L 3956 3386 L 4071.05 3455.62 L 4198.38 3510.25 L 4333.02 3548 L 4470 3567 L 4624.96 3563.74 L 4775.89 3535.7 L 4919.91 3484.72 L 5054.12 3412.62 L 5175.63 3321.27 L 5281.55 3212.48 L 5368.97 3088.12 L 5435 2950 L 5470.42 2848.91 L 5488.12 2731.5 L 5497 2069 L 5503.12 1471.75 L 5519 1356 L 5670.5 1342.62 L 6401 1342 L 7265 1345 L 7331 1377 L 7445.25 1462 L 7528 1577 L 7550.5 1643.12 L 7555 1740 L 7558.14 1796.58 L 7552.22 1846.11 L 7514.18 1914.18 L 7421 2026.38 L 6977.03 2485.45 L 6036 3428 L 4565 4900 L 3973 4900 L 3459.62 4897.25 L 3387.58 4891.56 L 3370 4881 L 3360 4567 L 3346 4198 L 3285.79 4011.36 L 3187.17 3853.33 L 3057.31 3727.1 L 2903.38 3635.88 L 2732.51 3582.85 L 2551.89 3571.23 L 2368.67 3604.22 L 2190 3685 L 2081.91 3765.83 L 1989.75 3865.88 L 1915.22 3982.98 L 1860 4115 L 1839.5 4215.25 L 1831 4440 L 1822.38 4661.38 L 1804 4741 L 1748.12 4819 L 1672 4876 L 1562.38 4898.12 L 1455 4882 L 1455 4882 M 1635 4831 L 1709 4779 L 1745 4736.69 L 1765.25 4682 L 1781 4420 L 1789.5 4195.62 L 1810 4095 L 1861.53 3968.08 L 1929 3854.97 L 2011.09 3756.62 L 2106.5 3674 L 2213.91 3608.07 L 2332 3559.78 L 2459.47 3530.11 L 2595 3520 L 2741.19 3532.28 L 2878.36 3567.97 L 3004.45 3625.36 L 3117.38 3702.75 L 3215.07 3798.42 L 3295.45 3910.66 L 3356.46 4037.75 L 3396 4178 L 3410 4551 L 3410 4850 L 3973 4850 L 4535 4850 L 6001 3383 L 6927.45 2455 L 7367.62 2001.75 L 7461.28 1891.87 L 7500.48 1827.12 L 7507.6 1783.01 L 7505 1735 L 7500 1662 L 7483 1607 L 7405.88 1502.62 L 7301 1423 L 7245 1395 L 6400 1395 L 5555 1395 L 5549 2090 L 5537.5 2751.62 L 5519.47 2869.2 L 5484 2970 L 5433.73 3079.73 L 5366.88 3189.38 L 5290.08 3289.08 L 5210 3369 L 4998.75 3507 L 4762 3597 L 4521.5 3615.5 L 4275 3592 L 4088.75 3522.5 L 3916 3426 L 3789.5 3313.25 L 3681 3187 L 3594.38 3024.5 L 3528 2850 L 3508.38 2685.88 L 3503 2077 L 3499 1390 L 2454 1390 L 1408 1390 L 1374 1424 L 1342 1474.38 L 1355 1530 L 1380 1563.59 L 1441.75 1581.25 L 1866 1592 L 2326.38 1607.88 L 2433.14 1634.89 L 2540 1686 L 2676 1772.66 L 2788.75 1881.25 L 2878.62 2011.97 L 2946 2165 L 2969.5 2257.25 L 2978 2396 L 2977.75 2534.88 L 2961 2631 L 2882.55 2833.73 L 2760.12 3003.38 L 2596.64 3136.83 L 2395 3231 L 2269.12 3252.25 L 1835 3260 L 1345 3265 L 1342 3959 L 1350 4689 L 1396.38 4767.62 L 1472 4829 L 1553.12 4849.12 L 1635 4831 L 1635 4831"
         id="path230" /><path
         d="M 6400 3755 L 7552 2610 L 7560 2913 L 7560 3215 L 6717 4058 L 5875 4900 L 5565 4900 L 5255 4900 L 6400 3755 M 6678 4017 L 7510 3185 L 7508 2957 L 7505 2730 L 6445 3790 L 5385 4850 L 5615 4850 L 5845 4850 L 6678 4017"
         id="path232" /></g></g></svg>
