<?xml version="1.0" encoding="UTF-8" standalone="no"?>
<!-- Created with Inkscape (http://www.inkscape.org/) -->

<svg
   xml:space="preserve"
   id="svg5"
   version="1.1"
   viewBox="0 0 297 210"
   height="210mm"
   width="297mm"
   inkscape:version="1.4.2 (ebf0e940d0, 2025-05-08)"
   sodipodi:docname="track.svg"
   xmlns:inkscape="http://www.inkscape.org/namespaces/inkscape"
   xmlns:sodipodi="http://sodipodi.sourceforge.net/DTD/sodipodi-0.dtd"
   xmlns="http://www.w3.org/2000/svg"
   xmlns:svg="http://www.w3.org/2000/svg"><sodipodi:namedview
     id="namedview7"
     pagecolor="#ffffff"
     bordercolor="#666666"
     borderopacity="1.0"
     inkscape:showpageshadow="2"
     inkscape:pageopacity="0.0"
     inkscape:pagecheckerboard="0"
     inkscape:deskcolor="#d1d1d1"
     inkscape:document-units="mm"
     showgrid="false"
     inkscape:zoom="1.0288855"
     inkscape:cx="629.3217"
     inkscape:cy="451.45935"
     inkscape:window-width="1920"
     inkscape:window-height="1100"
     inkscape:window-x="0"
     inkscape:window-y="0"
     inkscape:window-maximized="1"
     inkscape:current-layer="svg5" /><defs
     id="defs2" /><g
     inkscape:label="Layer 1"
     inkscape:groupmode="layer"
     id="layer1"><path
       style="fill:none;stroke:#000000;stroke-width:1;stroke-dasharray:none;stroke-opacity:1"
       d="M 31.299 19.4513 L 20.7309 22.4426 L 13.339 27.8262 L 8.57462 34.8414 L 5.88924 42.7278 L 4.56084 58.0718 L 4.96479 67.7736 L 4.58173 93.7657 L 5.93646 108.388 L 9.53986 118.577 L 14.2013 123.038 L 19.7694 125.831 L 32.6964 127.831 L 59.2054 127.406 L 64.057 129.097 L 67.6274 132.63 L 69.0644 137.237 L 67.5162 142.148 L 62.7591 146.391 L 56.5173 148.418 L 41.3168 148.77 L 25.3885 149.097 L 18.2371 151.091 L 12.2064 155.289 L 5.92031 166.132 L 4.60421 178.614 L 8.42658 189.889 L 12.3173 194.183 L 17.5559 197.108 L 30.792 201.024 L 42.9266 202.938 L 70.9611 203.616 L 101.516 201.472 L 119.224 198.292 L 125.89 196.029 L 130.032 193.262 L 133.154 188.359 L 135.124 182.572 L 136.517 169.354 L 135.457 143.402 L 135.926 133.301 L 138.28 123.184 L 140.608 118.943 L 143.939 115.686 L 148.452 113.744 L 154.323 113.445 L 163.29 116.762 L 168.519 123.886 L 170.931 133.782 L 171.447 145.415 L 170.476 169.748 L 170.83 180.378 L 172.972 188.602 L 179.508 196.466 L 188.911 200.476 L 227.358 203.296 L 247.746 202.512 L 265.556 199.839 L 274.734 196.471 L 281.604 191.511 L 286.5 185.237 L 289.756 177.922 L 292.686 161.281 L 293.069 143.795 L 294.305 120.722 L 294.206 108.787 L 292.17 98.2015 L 288.532 91.8766 L 283.048 85.9409 L 271.451 75.4047 L 245.2 46.6816 L 231.217 32.609 L 216.425 21.1608 L 210.065 18.9626 L 202.459 18.4984 L 187.732 19.1989 L 123.272 19.1989 L 107.876 19.2501 L 100.498 20.7822 L 93.8639 24.6233 L 90.5676 29.324 L 88.7436 35.6651 L 87.3234 50.6122 L 85.2248 64.152 L 82.5529 68.734 L 78.0693 70.972 L 73.7435 70.6894 L 70.8135 68.595 L 68.0353 60.7986 L 67.0646 43.5678 L 62.2908 32.47 L 54.0108 24.4815 L 43.3162 20.0071 L 31.299 19.4513 M 181.417 38.4183 L 180.501 40.2016 L 181.465 42.9087 L 187.011 49.8259 L 198.432 60.7907 L 225.749 89.0934 L 254.163 116.338 L 263.842 123.942 L 270.052 126.921 L 275.261 126.718 L 277.511 122.054 L 277.083 114.47 L 272.398 101.619 L 242.512 68.0172 L 225.73 51.6206 L 208.877 39.0255 L 195.169 36.6908 L 187.002 36.9786 L 181.417 38.4183 M 109.122 41.9956 L 131.656 40.5525 L 143.517 40.5774 L 153.428 42.7255 L 160.491 47.3654 L 167.369 54.1414 L 179.655 68.0366 L 235.702 123.907 L 247.234 134.408 L 261.938 149.691 L 267.384 157.747 L 269.907 165.345 L 268.269 171.934 L 261.232 176.961 L 249.498 179.423 L 235.871 179.521 L 209.743 177.99 L 201.215 178.436 L 196.591 178.031 L 193.8 176.353 L 192.563 171.586 L 192.497 165.621 L 193.235 154.407 L 192.891 135.141 L 189.861 116.7 L 186.402 108.532 L 181.148 101.464 L 173.724 95.7927 L 163.756 91.8157 L 154.757 90.4323 L 145.676 91.0413 L 132.417 95.6589 L 123.119 103.462 L 117.106 113.75 L 113.703 125.825 L 112.232 138.986 L 112.019 152.534 L 112.66 177.99 L 47.0209 177.99 L 35.2241 177.946 L 29.4961 176.371 L 28.2922 174.753 L 28.8114 172.411 L 33.4773 169.903 L 41.3521 169.358 L 55.6679 170.129 L 63.9937 169.282 L 71.7685 166.85 L 78.7085 162.99 L 84.5302 157.855 L 88.9499 151.602 L 91.6839 144.385 L 92.4485 136.359 L 90.9602 127.68 L 88.1283 120.877 L 84.3149 115.525 L 74.2983 108.501 L 62.0209 105.27 L 48.5931 104.49 L 38.3612 105.164 L 32.774 104.994 L 28.8764 103.585 L 26.7331 97.3434 L 26.5687 87.1568 L 27.7615 69.1159 L 27.1924 56.9667 L 27.7022 50.6845 L 29.827 45.6593 L 33.2591 43.0232 L 37.2037 42.4697 L 40.9562 43.8831 L 43.812 47.1481 L 46.1485 55.3211 L 46.5082 63.8608 L 47.3098 72.4836 L 50.9722 80.906 L 57.6178 87.8945 L 65.3795 92.4124 L 73.7281 94.5226 L 82.1347 94.2886 L 90.0703 91.7734 L 97.006 87.0403 L 102.413 80.1525 L 105.762 71.1731 L 108.139 56.6425 L 109.122 41.9956"
       id="path1"
       sodipodi:nodetypes="cssscssscssscssscssscssccssscsccssssscssccssccssssccsc" /></g></svg>
